<?xml version="1.0" encoding="utf-8"?>
<svg id="b" xmlns="http://www.w3.org/2000/svg" width="927.69" height="176.75" viewBox="0 0 927.69 176.75">
  <defs>
    <style>.d{stroke:#000;stroke-miterlimit:10;stroke-width:.25px;}.e{fill:#b12d5b;}</style>
  </defs>
  <g id="c">
    <polygon points="51.65 140.79 0 89.13 51.55 37.58 71.35 57.38 39.6 89.13 71.45 120.99 51.65 140.79"/>
    <polygon points="876.14 140.79 856.34 120.99 888.09 89.24 856.24 57.38 876.04 37.58 927.69 89.24 876.14 140.79"/>
    <polygon points="162.6 22.16 123.59 158.03 84.06 158.03 123.07 22.16 162.6 22.16"/>
    <rect class="e" x="175.21" width="359.29" height="176.75"/>
    <polygon class="d" points="351.48 60.71 351.48 69.1 389.03 69.1 389.03 107.64 351.48 107.64 351.48 119.48 406.03 119.48 406.03 158.03 312.69 158.03 312.69 22.16 406.03 22.16 406.03 60.71 351.48 60.71"/>
    <polygon class="d" points="304.69 158.03 264.07 158.03 247.83 119.48 243.92 110.19 237.72 119.48 232.48 127.34 232.48 158.03 193.79 158.03 193.79 22.16 232.48 22.16 232.48 61.18 232.8 60.71 251.75 32.31 258.52 22.16 302.66 22.16 276.93 60.71 271.34 69.1 268.82 72.87 283.47 107.64 288.45 119.48 304.69 158.03"/>
    <path d="M493.6,22.16h-79.57v135.87h38.49v-50.39h25.87v50.39h39.11v-50.01l-.38-.38-8.91-8.92,9.29-9.29v-43.37l-23.9-23.9ZM478.39,78.43h-25.87v-17.72h25.87v17.72Z"/>
    <polygon class="d" points="843.63 119.48 843.63 158.03 765.08 158.03 765.08 22.16 802.6 22.16 802.6 119.48 843.63 119.48"/>
    <polygon class="d" points="655.34 22.16 655.34 158.03 616.45 158.03 596.1 119.48 590.38 108.64 590.38 107.64 589.85 107.64 590.38 108.64 590.38 158.03 551.5 158.03 551.5 22.16 590.38 22.16 610.73 60.71 615.16 69.1 616.45 71.54 616.45 22.16 655.34 22.16"/>
    <rect class="d" x="663.34" y="22.16" width="93.74" height="38.55"/>
    <rect class="d" x="663.34" y="119.48" width="93.74" height="38.55"/>
    <rect class="d" x="663.34" y="69.1" width="47.3" height="38.54"/>
  </g>
</svg>